<svg width="10" height="16" viewBox="0 0 10 16" fill="none" xmlns="http://www.w3.org/2000/svg">
<path d="M8.96089 3.92172C8.96089 4.73146 8.0427 5.30984 7.98486 5.23755C7.29803 4.44227 6.1268 3.84942 4.93388 3.84942C3.7265 3.84942 2.98906 4.39166 2.98906 5.2014C2.98906 6.14127 3.97954 6.39432 5.36767 6.69797C7.0233 7.05946 9.2067 7.7246 9.2067 10.0888C9.2067 11.9107 7.94148 13.1687 5.83761 13.494V14.1953C5.83761 15.0267 5.51227 15.4244 4.78928 15.4244H4.6953C3.93617 15.4244 3.66866 15.0484 3.66866 14.1953V13.5301C1.48526 13.2988 0.24173 12.3011 0.24173 11.2961C0.24173 10.5225 1.10931 9.95861 1.18161 10.0309C1.86844 10.8623 3.19872 11.5419 4.60854 11.5419C5.88822 11.5419 6.62566 10.9997 6.62566 10.19C6.62566 9.19948 5.50504 8.92475 4.18921 8.6211C2.60588 8.2813 0.509233 7.64507 0.509233 5.26646C0.509233 3.53854 1.7383 2.29501 3.68312 1.93352V1.26838C3.68312 0.436947 3.98677 0.0393066 4.70976 0.0393066H4.8182C5.55564 0.0393066 5.84484 0.415257 5.84484 1.26838V1.88291C7.86196 2.0998 8.96089 2.9963 8.96089 3.92172Z" fill="#218967"/>
</svg>
