<svg width="24" height="24" viewBox="0 0 24 24" fill="none" xmlns="http://www.w3.org/2000/svg">
<g clip-path="url(#clip0_969_3283)">
<path d="M12 0L15 4.5H13.5V7.5H10.5V4.5H9L12 0Z" fill="#2FC191"/>
<path d="M22.5 10.5V22.5H1.5V10.5H22.5ZM24 9H0V24H24V9Z" fill="#2FC191"/>
<path d="M12 12C14.4855 12 16.5 14.0145 16.5 16.5C16.5 18.9855 14.4855 21 12 21H19.5V19.5H21V13.5H19.5V12H12Z" fill="#2FC191"/>
<path d="M7.5 16.5C7.5 14.0145 9.5145 12 12 12H4.5V13.5H3V19.5H4.5V21H12C9.5145 21 7.5 18.9855 7.5 16.5Z" fill="#2FC191"/>
</g>
<defs>
<clipPath id="clip0_969_3283">
<rect width="24" height="24" fill="white"/>
</clipPath>
</defs>
</svg>
